<svg xmlns="http://www.w3.org/2000/svg" viewBox="0 0 16 16" xml:space="preserve"><circle fill="#FFF" cx="8" cy="8" r="7.9"/><path fill="#FFCA05" d="M9.39 15.77c.23-.23 6.15-6.11 6.37-6.33a7.888 7.888 0 0 1-6.37 6.33zM6.77.2A7.909 7.909 0 0 0 .21 6.73L6.77.2zM.41 10.16c.25.9.66 1.73 1.2 2.46L12.66 1.63c-.73-.54-1.56-.95-2.45-1.21l-9.8 9.74zm3.01 4.27c.74.53 1.58.93 2.48 1.18l9.72-9.65c-.24-.91-.64-1.75-1.17-2.5L3.42 14.43z"/><path fill="#231F20" d="M3.26 12.84c-.08 0-.15-.07-.15-.15V6.84H1.77a.15.15 0 0 1-.14-.1c-.02-.06 0-.12.05-.16L7.92 1.5c.06-.05.15-.04.21.02.05.06.04.15-.02.21L2.18 6.55h1.08c.08 0 .15.07.15.15v6c0 .08-.07.14-.15.14m6.15-10c-.03 0-.06-.01-.09-.03L9 2.54a.143.143 0 0 1-.02-.2c.05-.06.14-.07.21-.02l.31.26c.06.05.07.14.02.21-.02.03-.07.05-.11.05m4.91 3.99h-.44c-.08 0-.15-.07-.15-.15s.07-.15.15-.15h.03a.143.143 0 0 1-.02-.2c.05-.06.14-.07.21-.02l.32.26c.05.04.07.1.05.16-.04.06-.09.1-.15.1m-1.47.44c-.08 0-.15-.07-.15-.15v-.44c0-.08.07-.15.15-.15h.44c.08 0 .15.07.15.15s-.07.15-.15.15H13v.3c-.01.08-.07.14-.15.14m-8.01 5.57h-.42c-.08 0-.15-.07-.15-.15s.07-.15.15-.15h.42c.08 0 .15.07.15.15 0 .09-.07.15-.15.15m8.01 0h-.42c-.08 0-.15-.07-.15-.15s.07-.15.15-.15h.28v-.3c0-.08.07-.15.15-.15s.15.07.15.15v.45c-.02.09-.08.15-.16.15m-6.6 0H5.4c-.08 0-.15-.07-.15-.15s.07-.15.15-.15h.85c.08 0 .15.07.15.15-.01.09-.07.15-.15.15m1.4 0H6.8c-.08 0-.15-.07-.15-.15s.07-.15.15-.15h.85c.08 0 .15.07.15.15 0 .09-.07.15-.15.15m1.41 0h-.85c-.08 0-.15-.07-.15-.15s.07-.15.15-.15h.85c.08 0 .15.07.15.15-.01.09-.07.15-.15.15m1.4 0h-.85c-.08 0-.15-.07-.15-.15s.07-.15.15-.15h.85c.08 0 .15.07.15.15 0 .09-.07.15-.15.15m1.41 0h-.85c-.08 0-.15-.07-.15-.15s.07-.15.15-.15h.85c.08 0 .15.07.15.15-.01.09-.07.15-.15.15m.98-4.06c-.08 0-.15-.07-.15-.15v-.9c0-.08.07-.15.15-.15s.15.07.15.15v.9c-.01.08-.07.15-.15.15m0 1.5c-.08 0-.15-.07-.15-.15v-.9c0-.08.07-.15.15-.15s.15.07.15.15v.9c-.01.09-.07.15-.15.15m0 1.51c-.08 0-.15-.07-.15-.15v-.9c0-.08.07-.15.15-.15s.15.07.15.15v.9c-.01.08-.07.15-.15.15m-2.39-8.1c-.03 0-.06-.01-.09-.03l-.64-.52a.155.155 0 0 1-.02-.21c.05-.06.14-.07.21-.02l.64.52c.06.05.07.14.02.21-.04.03-.08.05-.12.05m1.04.84c-.03 0-.06-.01-.09-.03l-.64-.52c-.06-.05-.07-.14-.02-.21.05-.06.14-.07.21-.02l.64.52c.06.05.07.14.02.21-.03.04-.08.05-.12.05m1.05.85c-.03 0-.06-.01-.09-.03l-.64-.52c-.06-.05-.07-.14-.02-.21.05-.06.14-.07.21-.02l.64.52c.06.05.07.14.02.21-.04.04-.08.05-.12.05m1.04.85c-.03 0-.06-.01-.09-.03l-.64-.52c-.06-.05-.07-.14-.02-.21.05-.06.14-.07.21-.02l.64.52c.06.05.07.14.02.21-.04.04-.08.05-.12.05m-2.35 4.53c0 .42-1.45 1.03-3.24 1.03s-3.24-.61-3.24-1.03c0-.68.83-1.65 2.01-2.08.37.2.79.32 1.23.32s.86-.12 1.22-.32c1.18.43 2.02 1.41 2.02 2.08M5.71 6.49C5.71 5.23 6.74 4.2 8 4.2s2.29 1.03 2.29 2.29c0 1.27-1.03 2.28-2.29 2.28S5.71 7.75 5.71 6.49m9.32 4.48a7.622 7.622 0 0 1-7.02 4.65c-1.03 0-2.03-.2-2.97-.6A7.622 7.622 0 0 1 .39 8c0-1.03.2-2.03.6-2.97A7.622 7.622 0 0 1 8.01.38c1.03 0 2.03.2 2.97.6A7.622 7.622 0 0 1 15.63 8c0 1.03-.2 2.03-.6 2.97m.34-6.08c-.4-.95-.98-1.81-1.71-2.54A7.954 7.954 0 0 0 11.12.64 7.78 7.78 0 0 0 8 0C6.92 0 5.87.21 4.89.63c-.95.4-1.81.98-2.54 1.71-.74.74-1.32 1.59-1.72 2.55C.21 5.87 0 6.93 0 8c0 1.08.21 2.13.63 3.11.4.95.98 1.81 1.71 2.54s1.59 1.31 2.54 1.71c.99.43 2.04.64 3.12.64s2.13-.21 3.11-.63c.95-.4 1.81-.98 2.54-1.71s1.31-1.59 1.71-2.54c.43-.99.64-2.04.64-3.12s-.21-2.13-.63-3.11"/></svg>